<svg width="25" height="24" viewBox="0 0 25 24" fill="none" xmlns="http://www.w3.org/2000/svg">
<g id="trending_up">
<mask id="mask0_6564_2812" style="mask-type:alpha" maskUnits="userSpaceOnUse" x="0" y="0" width="25" height="24">
<rect id="Bounding box" x="0.5" width="24" height="24" fill="#D9D9D9"/>
</mask>
<g mask="url(#mask0_6564_2812)">
<path id="trending_up_2" d="M3.1998 17.3C3.01647 17.1167 2.9248 16.8875 2.9248 16.6125C2.9248 16.3375 3.01647 16.1 3.1998 15.9L9.1998 9.85C9.2998 9.76667 9.40814 9.7 9.5248 9.65C9.64147 9.6 9.76647 9.575 9.8998 9.575C10.0331 9.575 10.1623 9.6 10.2873 9.65C10.4123 9.7 10.5165 9.76667 10.5998 9.85L13.8998 13.15L19.0998 8H17.4998C17.2165 8 16.979 7.90417 16.7873 7.7125C16.5956 7.52083 16.4998 7.28333 16.4998 7C16.4998 6.71667 16.5956 6.47917 16.7873 6.2875C16.979 6.09583 17.2165 6 17.4998 6H21.4998C21.7831 6 22.0206 6.09583 22.2123 6.2875C22.404 6.47917 22.4998 6.71667 22.4998 7V11C22.4998 11.2833 22.404 11.5208 22.2123 11.7125C22.0206 11.9042 21.7831 12 21.4998 12C21.2165 12 20.979 11.9042 20.7873 11.7125C20.5956 11.5208 20.4998 11.2833 20.4998 11V9.4L14.5998 15.3C14.4998 15.4 14.3915 15.4708 14.2748 15.5125C14.1581 15.5542 14.0331 15.575 13.8998 15.575C13.7665 15.575 13.6415 15.5542 13.5248 15.5125C13.4081 15.4708 13.2998 15.4 13.1998 15.3L9.8998 12L4.5748 17.325C4.39147 17.5083 4.16647 17.6 3.8998 17.6C3.63314 17.6 3.3998 17.5 3.1998 17.3Z" fill="white"/>
</g>
</g>
</svg>
